<svg width="62" height="60" viewBox="0 0 62 60" fill="none" xmlns="http://www.w3.org/2000/svg">
<path d="M33.4546 52.8326C33.5774 52.8326 33.7002 52.8293 33.8231 52.8326C34.0786 52.8403 34.3309 52.7983 34.582 52.7651C34.9106 52.7208 35.2392 52.6611 35.5601 52.5737C36.0347 52.4443 36.4972 52.286 36.9441 52.0814C37.3601 51.8911 37.7562 51.6687 38.129 51.4054C38.6269 51.0547 39.0661 50.642 39.4169 50.1408C39.6647 49.7857 39.8528 49.4028 39.9645 48.9824C40.0187 48.7789 40.0608 48.5731 40.0652 48.3618C40.0674 48.2566 40.0685 48.1515 40.0707 48.0464C40.0774 47.5762 39.9833 47.1237 39.8218 46.6845C39.554 45.9609 39.1469 45.3215 38.6347 44.7461C38.0936 44.1376 37.4641 43.6398 36.7649 43.2293C36.2726 42.9405 35.7537 42.7071 35.2149 42.5168C34.7181 42.342 34.2092 42.2159 33.6925 42.1174C33.5808 42.0964 33.4679 42.0809 33.3551 42.0621C33.0054 42.0046 32.5928 42.2446 32.5463 42.7049C32.5275 42.8952 32.5961 43.0678 32.7255 43.2105C32.8284 43.3245 32.9579 43.3942 33.1094 43.4229C33.2809 43.455 33.4535 43.486 33.6261 43.5181C34.3021 43.642 34.9493 43.8566 35.5678 44.1531C36.3589 44.5326 37.0559 45.0426 37.6367 45.7031C37.9985 46.1147 38.2939 46.5672 38.493 47.0795C38.5816 47.3096 38.6479 47.5464 38.6778 47.7898C38.7508 48.3806 38.6114 48.9194 38.2541 49.3995C38.0062 49.7337 37.7075 50.0136 37.369 50.2536C36.9375 50.559 36.4717 50.8002 35.9771 50.9872C35.5744 51.1387 35.1618 51.256 34.7402 51.3379C34.5433 51.3755 34.3419 51.3976 34.1417 51.4209C33.8175 51.4585 33.4945 51.4651 33.1703 51.4507C32.7764 51.4319 32.3837 51.4054 31.9998 51.3025C31.7364 51.2317 31.4842 51.1332 31.2496 50.9927C30.8547 50.757 30.5626 50.4251 30.3479 50.0235C30.1643 49.6817 30.0426 49.3166 29.964 48.9371C29.8977 48.6195 29.8556 48.2998 29.839 47.9745C29.8246 47.7035 29.7981 47.4335 29.8114 47.1613C29.8268 46.8637 29.8335 46.5661 29.8645 46.2696C29.9198 45.7386 29.9972 45.2108 30.0946 44.6853C30.2816 43.6763 30.546 42.6883 30.8491 41.7092C31.1102 40.8639 31.4045 40.0297 31.7375 39.2099C32.0706 38.3889 32.4556 37.5935 32.8837 36.8179C33.2311 36.1884 33.6051 35.5754 34.01 34.9813C34.4836 34.2854 34.9881 33.6127 35.5346 32.9722C35.6309 32.8593 35.7282 32.7453 35.8256 32.6325C35.8488 32.6059 35.8743 32.5816 35.8997 32.5573C35.9241 32.534 35.9705 32.5296 35.996 32.5495C36.0778 32.6148 36.163 32.6779 36.2405 32.7487C36.35 32.8493 36.454 32.9556 36.5624 33.0596C36.8003 33.2875 36.9773 33.5574 37.1056 33.8584C37.3391 34.406 37.5659 34.957 37.7982 35.5046C38.0372 36.0689 38.2773 36.6331 38.5207 37.1963C38.7884 37.8158 39.0584 38.4332 39.3295 39.0506C39.4954 39.4278 39.6636 39.8029 39.8351 40.1768C40.1891 40.9491 40.5465 41.7202 40.9027 42.4914C41.135 42.9925 41.3696 43.4915 41.6008 43.9927C41.821 44.4695 42.0367 44.9486 42.2215 45.4409C42.32 45.7043 42.4052 45.972 42.455 46.2475C42.5158 46.5838 42.5379 46.9213 42.497 47.2664C42.4572 47.5973 42.4085 47.9247 42.3288 48.2489C42.1595 48.9337 41.894 49.5799 41.5499 50.1939C41.1362 50.9307 40.635 51.6034 40.0641 52.2252C39.8981 52.4055 39.73 52.5848 39.5585 52.7596C39.2454 53.0793 38.9112 53.3758 38.5738 53.669C38.1899 54.0031 37.7949 54.3218 37.3889 54.6282C36.808 55.0664 36.2117 55.4812 35.5977 55.8729C34.9991 56.2546 34.3884 56.6175 33.7655 56.9571C33.219 57.2548 32.6625 57.5325 32.0949 57.788C31.5993 58.0115 31.0959 58.214 30.5858 58.3998C29.943 58.6333 29.2858 58.8214 28.6176 58.9641C28.2414 59.0437 27.8608 59.1057 27.478 59.1478C27.2512 59.1732 27.0244 59.1876 26.7976 59.1975C26.6494 59.2042 26.5011 59.2197 26.3517 59.2241C26.2201 59.2285 26.0895 59.2296 25.959 59.2053C25.8992 59.1942 25.8362 59.1975 25.7753 59.1953C24.8736 59.1599 24.0062 58.9663 23.1698 58.6311C22.4153 58.3279 21.7304 57.9075 21.1031 57.393C20.6141 56.9925 20.1749 56.54 19.7755 56.0488C19.2157 55.3595 18.7388 54.6161 18.3284 53.8294C17.9632 53.1302 17.6468 52.4089 17.3713 51.6687C17.2032 51.2173 17.0527 50.7593 16.9067 50.3012C16.8934 50.2592 16.8768 50.2182 16.8679 50.1762C16.827 49.9937 16.8182 49.9715 17.0051 49.8631C17.5815 49.5279 18.1447 49.1727 18.6946 48.7977C19.3252 48.3684 19.9403 47.9192 20.5378 47.4446C21.0589 47.0297 21.5656 46.5982 22.0601 46.1512C22.7118 45.5637 23.3313 44.9442 23.931 44.3047C24.4278 43.7736 24.9013 43.2216 25.356 42.6529C25.7277 42.1871 26.0895 41.7136 26.4336 41.2279C26.7578 40.7698 27.0676 40.303 27.3674 39.8294C27.7181 39.274 28.0511 38.7076 28.3631 38.1289C28.695 37.5116 29.007 36.8843 29.3002 36.247C29.5779 35.6418 29.8335 35.0278 30.0736 34.406C30.3502 33.6869 30.5969 32.9567 30.8193 32.2187C30.9509 31.7828 31.077 31.3458 31.1855 30.9032C31.1998 30.8435 31.2187 30.7849 31.243 30.7284C31.2518 30.7085 31.2839 30.6875 31.3038 30.6875C31.409 30.6897 31.5152 30.6875 31.6181 30.7063C32.1701 30.8037 32.7178 30.9176 33.2533 31.0869C33.6969 31.2263 34.1251 31.4055 34.5455 31.6025C34.6008 31.6279 34.6528 31.6622 34.7048 31.6943C34.738 31.7142 34.748 31.7563 34.7258 31.7839C34.6484 31.8791 34.5721 31.9742 34.4935 32.0683C34.0709 32.5716 33.6637 33.0872 33.2809 33.6216C32.9125 34.1338 32.5629 34.6583 32.2321 35.196C32.0717 35.4571 31.9146 35.7204 31.7641 35.9881C31.3868 36.6608 31.0383 37.349 30.7274 38.0548C30.4354 38.7209 30.1742 39.3991 29.9331 40.085C29.7129 40.7134 29.5104 41.3474 29.3257 41.9857C29.1166 42.7093 28.934 43.4384 28.7891 44.1775C28.7216 44.5215 28.6641 44.8667 28.6043 45.2108C28.5711 45.4 28.5656 45.5947 28.5313 45.7839C28.476 46.0871 28.4959 46.3957 28.4472 46.6989C28.4372 46.7586 28.4395 46.8217 28.4395 46.8825C28.4383 47.189 28.435 47.4955 28.4395 47.8019C28.4406 47.9148 28.4572 48.0287 28.466 48.1416C28.4715 48.2113 28.4771 48.281 28.4826 48.3507C28.5423 49.072 28.7061 49.768 29.0059 50.4285C29.2294 50.9208 29.5381 51.3545 29.9375 51.7207C30.3236 52.0758 30.7684 52.3336 31.2607 52.5095C31.6745 52.6567 32.1026 52.7386 32.5408 52.7861C32.8472 52.8193 33.1526 52.8193 33.4591 52.8248L33.4546 52.8326Z" fill="#FAD940"/>
<path d="M29.1544 30.543C29.3503 30.5463 29.5605 30.5496 29.7707 30.554C29.8072 30.554 29.8337 30.5917 29.8249 30.6271C29.8072 30.7034 29.7895 30.7808 29.7696 30.8572C29.5395 31.7301 29.2662 32.5886 28.9608 33.4383C28.7407 34.0479 28.4995 34.6487 28.2384 35.2428C28.0193 35.7396 27.7936 36.2341 27.5458 36.7176C27.1353 37.5219 26.695 38.3086 26.2148 39.0742C25.7446 39.8243 25.2423 40.5523 24.7013 41.2537C24.4336 41.6 24.157 41.9397 23.8793 42.2782C23.1325 43.1877 22.3149 44.0285 21.4607 44.8362C21.2129 45.0707 20.9551 45.2953 20.6962 45.5188C20.4252 45.7544 20.1519 45.989 19.8731 46.2136C19.5666 46.4614 19.2546 46.7026 18.9382 46.9371C18.1781 47.5014 17.3915 48.028 16.5794 48.5148C16.5496 48.5325 16.5175 48.548 16.4865 48.5635C16.4688 48.5724 16.4245 48.558 16.4168 48.5414C16.4091 48.5259 16.3991 48.5104 16.3947 48.4938C16.2254 47.9218 16.0185 47.3642 15.7983 46.811C15.5594 46.2092 15.3115 45.6095 15.0759 45.0065C14.7949 44.2885 14.547 43.5594 14.37 42.8082C14.2837 42.442 14.2074 42.0735 14.162 41.6996C14.1189 41.3433 14.0779 40.986 14.0824 40.6264C14.0956 39.4681 14.4043 38.3982 15.046 37.4279C15.2739 37.0838 15.5229 36.7563 15.8039 36.4543C15.9532 36.2939 16.0971 36.1279 16.2553 35.9763C16.5595 35.6865 16.8682 35.3999 17.199 35.1388C17.4944 34.9054 17.7942 34.6764 18.0929 34.4473C18.1759 34.3843 18.2667 34.329 18.3541 34.2725C18.3895 34.2493 18.4448 34.2648 18.4691 34.3013C18.5123 34.3666 18.5554 34.433 18.5963 34.5005C18.863 34.9341 19.1628 35.3435 19.4914 35.7318C19.6784 35.952 19.872 36.1678 20.0645 36.3835C20.1342 36.462 20.2094 36.5362 20.2847 36.6092C20.9053 37.2055 21.5681 37.7499 22.2972 38.2112C22.4675 38.3185 22.6423 38.4203 22.816 38.521C22.9942 38.6239 23.1867 38.6261 23.377 38.5752C23.544 38.5298 23.6668 38.417 23.7542 38.2665C23.9434 37.9402 23.8295 37.5961 23.6093 37.4091C23.5297 37.3416 23.4367 37.2896 23.3493 37.2321C23.1579 37.1093 22.9621 36.992 22.7729 36.8648C22.306 36.5517 21.8734 36.1976 21.4607 35.8148C21.1963 35.5703 20.9518 35.3081 20.7139 35.0393C20.3134 34.5856 19.9616 34.0933 19.6496 33.5744C19.6319 33.5445 19.6186 33.5114 19.6087 33.4782C19.6043 33.4638 19.6109 33.4406 19.622 33.4306C19.654 33.4007 19.6872 33.372 19.7248 33.3498C20.0114 33.1794 20.2968 33.008 20.5856 32.8431C21.0337 32.5853 21.4961 32.353 21.9597 32.1251C22.805 31.7113 23.6857 31.4004 24.5973 31.1692C25.0299 31.0596 25.4658 30.9612 25.9039 30.876C26.1617 30.8262 26.4217 30.7908 26.6817 30.751C26.8897 30.7189 27.0977 30.6901 27.3057 30.6625C27.3577 30.6558 27.4108 30.6569 27.4628 30.6492C27.8102 30.6027 28.1609 30.5961 28.5105 30.5651C28.7196 30.5463 28.9309 30.5496 29.1555 30.543H29.1544Z" fill="#FAD940"/>
<path d="M22.3359 15.1518C22.3481 14.7801 22.3315 14.3851 22.3669 13.9924C22.3725 13.9315 22.3724 13.8696 22.3724 13.8087C22.3713 13.3263 22.4134 12.8462 22.4488 12.366C22.4798 11.939 22.5229 11.5119 22.576 11.0848C22.6291 10.6589 22.6867 10.234 22.753 9.8103C22.8073 9.46511 22.8615 9.11882 22.961 8.78138C23.1082 8.2813 23.3217 7.8133 23.6249 7.38846C23.8561 7.06429 24.1305 6.78438 24.4624 6.562C24.8706 6.28872 25.3165 6.12609 25.8088 6.08515C26.4727 6.02873 27.1 6.15928 27.6952 6.44362C28.3302 6.74676 28.7783 7.23578 29.066 7.87415C29.243 8.26802 29.3536 8.6818 29.4267 9.10554C29.4897 9.47728 29.5218 9.85123 29.5461 10.2285C29.5738 10.6666 29.5694 11.1036 29.5771 11.5418C29.5816 11.8316 29.5528 12.1193 29.5196 12.4058C29.4964 12.6061 29.4654 12.8052 29.441 13.0044C29.3979 13.3695 29.3592 13.7357 29.3149 14.1008C29.2707 14.4659 29.222 14.8299 29.1777 15.195C29.1346 15.5512 29.0981 15.9086 29.0549 16.2649C29.0118 16.6211 28.9653 16.9774 28.9199 17.3336C28.8989 17.4985 28.8801 17.6644 28.8602 17.8293C28.8082 18.2552 28.7562 18.6812 28.7053 19.1071C28.6633 19.4545 28.6245 19.803 28.5814 20.1504C28.5394 20.489 28.4918 20.8275 28.4475 21.1661C28.4221 21.3663 28.3988 21.5655 28.3745 21.7657C28.3546 21.9306 28.3336 22.0954 28.3125 22.2614C28.2605 22.6519 28.2108 23.0425 28.1565 23.433C28.0979 23.8579 28.0337 24.2827 27.9751 24.7076C27.9309 25.0196 27.8921 25.3327 27.8479 25.6447C27.7948 26.0175 27.7483 26.3915 27.641 26.7532C27.5713 26.9889 27.4794 27.2157 27.3356 27.4193C27.1354 27.7047 26.8687 27.895 26.5291 27.9669C25.7878 28.124 25.1207 27.9636 24.5409 27.4702C24.2488 27.2223 24.0353 26.9137 23.8727 26.5685C23.7753 26.3616 23.7001 26.1458 23.6525 25.9235C23.5109 25.2464 23.3671 24.5704 23.2387 23.8911C23.1148 23.2283 22.9953 22.5645 22.9013 21.8974C22.8382 21.4559 22.7685 21.0145 22.711 20.572C22.6634 20.2069 22.628 19.8418 22.5882 19.4755C22.5594 19.2144 22.5307 18.9533 22.5063 18.6922C22.4853 18.4743 22.4621 18.2563 22.4532 18.0373C22.4344 17.5737 22.3857 17.1112 22.3802 16.6466C22.378 16.4452 22.3603 16.2438 22.3547 16.0425C22.347 15.7537 22.3448 15.465 22.3393 15.153L22.3359 15.1518Z" fill="#F8A91E"/>
<path d="M38.9078 12.7329C38.9089 13.2065 38.8647 13.6767 38.8105 14.1469C38.7496 14.6691 38.6644 15.1869 38.577 15.7046C38.5184 16.0498 38.4487 16.3928 38.3779 16.7358C38.2606 17.3011 38.1411 17.8654 38.0172 18.4296C37.828 19.2926 37.6189 20.1511 37.4098 21.0108C37.1664 22.0143 36.9119 23.0144 36.6386 24.0102C36.4583 24.6684 36.268 25.3245 36.0456 25.9695C35.8863 26.4331 35.7104 26.8911 35.4836 27.3271C35.3741 27.5384 35.2502 27.7386 35.1019 27.9234C34.8939 28.1823 34.6394 28.3781 34.3131 28.4622C34.1006 28.5164 33.886 28.5396 33.6625 28.512C32.9467 28.4224 32.3758 28.0772 31.9222 27.5306C31.6567 27.2109 31.5195 26.8336 31.4885 26.4231C31.4653 26.1178 31.4763 25.8124 31.5184 25.506C31.5892 24.9937 31.7031 24.4903 31.8226 23.988C31.9897 23.2811 32.1623 22.5763 32.3039 21.8638C32.3957 21.4002 32.4842 20.9367 32.5473 20.4676C32.5904 20.1379 32.6424 19.8093 32.6834 19.4796C32.7144 19.2273 32.7332 18.974 32.7542 18.7217C32.783 18.3821 32.8106 18.0413 32.8383 17.7016C32.8394 17.6839 32.8405 17.6662 32.8416 17.6496C32.8626 17.2126 32.8836 16.7756 32.9035 16.3375C32.9257 15.8562 32.9389 15.3749 32.971 14.8948C33.0031 14.4146 33.0496 13.9356 33.1248 13.4598C33.3151 12.266 33.73 11.1619 34.4237 10.1662C34.5952 9.92054 34.7844 9.69263 35.0012 9.48574C35.1218 9.37068 35.2502 9.26557 35.3929 9.17817C35.8221 8.91706 36.2758 8.86175 36.7548 9.01996C36.9816 9.09519 37.1874 9.20915 37.381 9.34744C37.6466 9.53663 37.8789 9.76233 38.088 10.0113C38.2174 10.165 38.3413 10.3244 38.442 10.4992C38.6589 10.8764 38.7828 11.2836 38.8503 11.7106C38.9045 12.0492 38.9078 12.3911 38.9067 12.7318L38.9078 12.7329Z" fill="#91C644"/>
<path d="M13.6758 15.0514C13.6835 14.8279 13.6813 14.6343 13.6979 14.4429C13.7433 13.8886 13.8628 13.3531 14.1261 12.8575C14.3407 12.4547 14.6361 12.1262 15.03 11.8916C15.2878 11.7378 15.5677 11.6371 15.8598 11.5719C16.0578 11.5276 16.2569 11.5099 16.4605 11.5143C16.7194 11.5199 16.9639 11.5796 17.1951 11.6947C17.4651 11.8285 17.6985 12.0111 17.8944 12.2401C18.2075 12.6041 18.4199 13.0245 18.5925 13.4671C18.7551 13.8831 18.8801 14.3123 18.9974 14.7427C19.2397 15.6378 19.4853 16.5328 19.7177 17.4312C19.9478 18.3207 20.1602 19.2147 20.3339 20.1175C20.4368 20.6507 20.5242 21.1851 20.595 21.7239C20.6603 22.2185 20.7278 22.713 20.803 23.2053C20.917 23.9488 21.0453 24.6901 21.198 25.428C21.2832 25.8396 21.3617 26.2523 21.4104 26.6694C21.4425 26.9482 21.4436 27.2292 21.4392 27.5091C21.4359 27.7193 21.4204 27.9284 21.3772 28.1353C21.3396 28.3168 21.281 28.4905 21.2002 28.6564C21.0862 28.8899 20.9103 29.0713 20.6957 29.2162C20.4755 29.3645 20.2354 29.4685 19.9821 29.5437C19.794 29.6002 19.6026 29.6057 19.409 29.6079C18.8901 29.6156 18.4553 29.4176 18.0847 29.0625C17.8877 28.8733 17.7262 28.6553 17.5824 28.4241C17.4109 28.1486 17.2648 27.8587 17.1365 27.5611C16.7648 26.7015 16.4107 25.8341 16.0755 24.9589C15.7237 24.044 15.394 23.1201 15.0975 22.1853C14.8386 21.3677 14.6007 20.5434 14.3982 19.7092C14.2345 19.0376 14.0918 18.3605 13.9745 17.679C13.9015 17.2564 13.8351 16.8326 13.7908 16.4056C13.7687 16.1965 13.7311 15.9896 13.7145 15.7805C13.6935 15.5271 13.688 15.2738 13.6769 15.0503L13.6758 15.0514Z" fill="#33BED4"/>
<path d="M14.0889 32.7568C14.0757 32.9847 14.0668 33.2369 13.9706 33.4792C13.8533 33.7702 13.6574 33.9837 13.3731 34.1121C13.1164 34.2282 12.8443 34.2957 12.5644 34.3289C12.4858 34.3378 12.4073 34.3466 12.3287 34.3499C11.5863 34.3787 10.969 34.1331 10.5331 33.5113C10.2111 33.0522 9.90022 32.5864 9.58712 32.1206C9.08814 31.3793 8.58917 30.6381 8.09573 29.8935C7.12766 28.4342 6.17286 26.966 5.24351 25.4802C4.81092 24.7898 4.38497 24.0961 3.95569 23.4035C3.87272 23.2696 3.79527 23.1324 3.73663 22.9853C3.56404 22.5549 3.54302 22.1201 3.67689 21.6742C3.76651 21.3755 3.91365 21.1089 4.10505 20.8677C4.37501 20.5292 4.69586 20.2459 5.07423 20.0313C5.3464 19.8775 5.63959 19.7934 5.95048 19.7857C6.18724 19.7801 6.42069 19.8189 6.64638 19.8996C6.86987 19.9804 7.07898 20.0888 7.27702 20.2205C7.57795 20.4207 7.84237 20.6619 8.10126 20.912C8.70755 21.4994 9.2364 22.1522 9.72762 22.837C10.3361 23.6856 10.876 24.5763 11.3761 25.4912C12.0477 26.7226 12.6385 27.9916 13.1496 29.2982C13.4306 30.0163 13.684 30.7432 13.882 31.4889C13.9982 31.9281 14.0679 32.343 14.0878 32.7556L14.0889 32.7568Z" fill="#F04E26"/>
<path d="M44.2472 42.426C43.8699 42.4304 43.5347 42.3828 43.2072 42.2722C42.9882 42.1981 42.7923 42.0852 42.6175 41.9358C42.5235 41.8562 42.4483 41.7577 42.383 41.6537C42.2513 41.4446 42.1606 41.2178 42.1141 40.9733C42.061 40.6967 42.04 40.4168 42.0655 40.1369C42.0898 39.8669 42.1219 39.5981 42.1794 39.3326C42.2668 38.9298 42.3841 38.536 42.5279 38.151C42.6009 37.954 42.6861 37.7615 42.7713 37.5701C43.0357 36.9771 43.3522 36.4117 43.7117 35.8718C43.9297 35.5443 44.172 35.2324 44.4187 34.9248C44.6223 34.6714 44.859 34.449 45.0659 34.199C45.0881 34.1724 45.1135 34.1481 45.1401 34.1238C45.4764 33.8173 45.8127 33.5108 46.18 33.2398C46.6115 32.92 47.0773 32.6611 47.5663 32.4399C47.8617 32.306 48.1726 32.212 48.4857 32.129C48.7136 32.0692 48.9449 32.0161 49.1772 31.973C49.5135 31.911 49.8554 31.8955 50.1973 31.8989C50.4617 31.9022 50.7195 31.9354 50.9751 32.0073C51.2682 32.0892 51.5327 32.2275 51.7462 32.4388C52.0493 32.7397 52.2773 33.0904 52.347 33.5241C52.3746 33.6978 52.3735 33.8726 52.3414 34.0463C52.285 34.3439 52.1633 34.6139 52.0007 34.8661C51.8823 35.0509 51.7506 35.2257 51.5979 35.3839C51.4386 35.5477 51.2771 35.707 51.1156 35.8674C50.7737 36.2071 50.4296 36.5445 50.0922 36.8886C49.8211 37.163 49.5711 37.4562 49.3188 37.7471C49.1119 37.985 48.9072 38.224 48.7103 38.4707C48.4758 38.765 48.2401 39.0582 48.0078 39.3547C47.6725 39.7817 47.3417 40.2121 47.0065 40.6381C46.7354 40.9822 46.4312 41.2975 46.117 41.6039C45.9023 41.813 45.6645 41.9923 45.4012 42.1339C45.0327 42.333 44.6411 42.447 44.2494 42.4249L44.2472 42.426Z" fill="#9688C0"/>
<path d="M2.49282 18.6669C1.38866 18.6824 0.402886 17.7807 0.390716 16.5891C0.380759 15.5359 1.1862 14.5058 2.48618 14.4727C3.71314 14.497 4.59382 15.4463 4.58718 16.5825C4.58054 17.8261 3.55936 18.678 2.49282 18.6658V18.6669Z" fill="#F04E26"/>
<path d="M13.6787 6.55922C14.7165 6.53267 15.7454 7.35249 15.7852 8.63588C15.7664 9.79203 14.8957 10.7081 13.703 10.7479C12.3665 10.7258 11.5865 9.66037 11.5899 8.64805C11.5932 7.46755 12.569 6.54262 13.6798 6.56033L13.6787 6.55922Z" fill="#33BED4"/>
<path d="M25.9666 4.41528C24.9078 4.42302 23.8999 3.59324 23.8711 2.32756C23.8954 1.15591 24.785 0.258647 25.961 0.226562C27.3053 0.256434 28.072 1.3274 28.0665 2.3353C28.0587 3.52354 27.0641 4.43519 25.9677 4.41638L25.9666 4.41528Z" fill="#F8A91E"/>
<path d="M36.9253 3.45899C38.1036 3.45567 39.013 4.42817 39.0119 5.55003C39.0119 6.61546 38.1855 7.61562 36.9231 7.6466C35.726 7.62226 34.8143 6.70729 34.8243 5.53454C34.8354 4.22349 35.924 3.43133 36.9242 3.4601L36.9253 3.45899Z" fill="#91C644"/>
<path d="M52.1434 28.0313C52.1434 27.9959 52.1434 27.9616 52.1434 27.9262C52.1533 27.4228 52.3392 26.9913 52.6755 26.6185C52.9477 26.3176 53.2785 26.1129 53.6679 26.0067C53.8704 25.9513 54.0784 25.9082 54.2897 25.9259C54.9712 25.9823 55.5333 26.2567 55.9382 26.8254C56.1307 27.0964 56.2325 27.3996 56.2989 27.7193C56.3686 28.371 56.2181 28.954 55.7612 29.4408C55.6528 29.5559 55.5399 29.6643 55.4083 29.7539C54.9856 30.0405 54.5165 30.1622 54.0109 30.1102C53.4666 30.0549 53.003 29.8159 52.6412 29.4054C52.3945 29.1244 52.2297 28.7958 52.1655 28.4241C52.1434 28.2957 52.1456 28.163 52.1367 28.0313C52.1389 28.0313 52.1411 28.0313 52.1434 28.0313Z" fill="#9688C0"/>
</svg>
