<svg width="90" height="90" viewBox="0 0 90 90" fill="none" xmlns="http://www.w3.org/2000/svg">
<path d="M44.8627 89.8622C69.6398 89.8622 89.7255 69.7765 89.7255 44.9995C89.7255 20.2225 69.6398 0.136719 44.8627 0.136719C20.0857 0.136719 0 20.2225 0 44.9995C0 69.7765 20.0857 89.8622 44.8627 89.8622Z" fill="#33BED4"/>
<path d="M73.4259 35.142H77.7506C78.271 35.142 78.6957 34.7173 78.6957 34.1969C78.6957 33.6765 78.271 33.2518 77.7506 33.2518H73.378C72.6961 33.2518 72.1398 32.6955 72.1398 32.0136C72.1398 31.5709 72.1458 31.1283 72.1518 30.6916C72.1637 29.7286 72.1876 28.8134 72.1159 27.9161C72.0261 26.7497 71.9125 25.5294 71.5655 24.4647C70.3034 20.6065 66.6665 17.9865 62.5272 17.9506C61.5462 17.9446 60.5712 17.9446 59.5603 17.9506H58.0708C57.3829 17.9506 56.8326 17.3943 56.8326 16.7124V12.3338C56.8326 11.8134 56.4079 11.3887 55.8875 11.3887C55.3671 11.3887 54.9424 11.8134 54.9424 12.3338V16.6585C54.9424 17.3464 54.3861 17.8968 53.7042 17.8968H47.1423C46.4544 17.8968 45.9041 17.3405 45.9041 16.6585V12.3338C45.9041 11.8134 45.4794 11.3887 44.959 11.3887C44.4385 11.3887 44.0138 11.8134 44.0138 12.3338V16.6585C44.0138 17.3464 43.4575 17.8968 42.7756 17.8968H36.2137C35.5258 17.8968 34.9755 17.3405 34.9755 16.6585V12.3338C34.9755 11.8134 34.5508 11.3887 34.0304 11.3887C33.51 11.3887 33.0853 11.8134 33.0853 12.3338V16.7064C33.0853 17.3943 32.529 17.9446 31.8471 17.9446H30.4234C29.4065 17.9386 28.3956 17.9386 27.3907 17.9446C25.5005 17.9626 23.7658 18.477 22.2644 19.4759C19.3453 21.414 17.8858 24.0639 17.7841 27.5871C17.7661 28.5502 17.7721 29.5192 17.7781 30.5421C17.7781 31.0206 17.7841 31.4932 17.7841 31.9837C17.7841 32.6716 17.2278 33.2219 16.5459 33.2219H12.1852C11.6648 33.2219 11.2461 33.6406 11.2461 34.161C11.2461 34.6814 11.6648 35.1001 12.1852 35.1001H16.4801C17.168 35.1001 17.7183 35.6564 17.7183 36.3383V42.9062C17.7183 43.5941 17.162 44.1445 16.4801 44.1445H12.2091C11.6887 44.1445 11.27 44.5632 11.27 45.0836V45.1075C11.27 45.6279 11.6887 46.0466 12.2091 46.0466H16.492C17.1799 46.0466 17.7303 46.6029 17.7303 47.2848V53.8228C17.7303 54.5107 17.174 55.0611 16.492 55.0611H12.1972C11.6768 55.0611 11.2581 55.4798 11.2581 56.0002V56.0181C11.2581 56.5385 11.6768 56.9573 12.1972 56.9573H16.5279C17.2158 56.9573 17.7661 57.5136 17.7661 58.1955V58.5065C17.7661 58.674 17.7661 58.8295 17.7721 58.9851C17.7901 59.6072 17.7961 60.2352 17.808 60.8633C17.82 62.2212 17.826 63.5012 18.0533 64.7215C18.8429 68.9685 22.7848 72.2226 27.2172 72.2884C28.2521 72.3003 29.2749 72.3003 30.3217 72.2943H31.8112C32.4991 72.2943 33.0494 72.8506 33.0494 73.5325V77.8573C33.0494 78.3777 33.4681 78.7964 33.9885 78.7964H34.0065C34.5269 78.7964 34.9456 78.3777 34.9456 77.8573V73.5744C34.9456 72.8865 35.5019 72.3362 36.1838 72.3362H42.7278C43.4157 72.3362 43.966 72.8925 43.966 73.5744V77.8753C43.966 78.3957 44.3847 78.8144 44.9051 78.8144H44.9231C45.4435 78.8144 45.8622 78.3957 45.8622 77.8753V73.5924C45.8622 72.9045 46.4185 72.3542 47.1004 72.3542H53.6683C54.3562 72.3542 54.9065 72.9104 54.9065 73.5924V77.8872C54.9065 78.4076 55.3252 78.8264 55.8456 78.8264C56.3661 78.8264 56.7848 78.4076 56.7848 77.8872V73.5385C56.7848 72.8506 57.3411 72.3003 58.023 72.3003H62.3836C63.891 72.3003 65.2608 72.0072 66.4512 71.415C70.0881 69.6086 71.9304 66.7672 72.1039 62.7176C72.1458 61.7426 72.1398 60.7676 72.1218 59.7328C72.1159 59.2423 72.1099 58.7518 72.1099 58.2433C72.1099 57.5614 72.6662 56.9991 73.3481 56.9991H77.7267C78.2471 56.9991 78.6718 56.5744 78.6718 56.054C78.6718 55.5336 78.2471 55.1089 77.7267 55.1089H73.4019C72.714 55.1089 72.1637 54.5526 72.1637 53.8707V47.3088C72.1637 46.6269 72.714 46.0765 73.3959 46.0765H77.7267C78.2471 46.0765 78.6718 45.6518 78.6718 45.1314C78.6718 44.611 78.2471 44.1863 77.7267 44.1863H73.4019C72.714 44.1863 72.1637 43.63 72.1637 42.9481V36.3862C72.1637 35.6983 72.72 35.148 73.4019 35.148L73.4259 35.142ZM70.2436 62.2451C70.2376 67.0544 66.8699 70.4161 62.0546 70.4161H27.8333C23.0241 70.4161 19.6623 67.0484 19.6564 62.2331C19.6564 50.826 19.6564 39.4129 19.6623 28.0058C19.6623 23.1965 23.0241 19.8348 27.8453 19.8348H62.0666C66.8759 19.8348 70.2376 23.2025 70.2436 28.0178V62.2451Z" fill="white"/>
<path d="M45.8553 39.197C45.8015 36.0925 43.026 33.3708 39.7839 33.2572C37.9774 33.2033 36.2965 33.8194 35.0404 35.0277C33.7783 36.242 33.0844 37.9049 33.0724 39.7234C33.0604 44.0601 33.0604 48.4028 33.0664 52.7336V56.0115C33.0664 56.526 33.4851 56.9507 34.0056 56.9507H34.0534C34.5678 56.9507 34.9925 56.532 34.9925 56.0115V50.646C34.9925 49.9581 35.5488 49.4077 36.2307 49.4077H42.7747C43.4626 49.4077 44.0129 49.964 44.0129 50.646V56.0355C44.0129 56.5499 44.4317 56.9746 44.9521 56.9746C45.4665 56.9746 45.8852 56.5559 45.8852 56.0415C45.8852 54.869 45.8852 53.7026 45.8852 52.5362C45.8972 48.1636 45.9091 43.6474 45.8433 39.2089L45.8553 39.197ZM44.007 46.1956C44.007 46.8775 43.4507 47.4338 42.7687 47.4338H36.2547C35.6146 47.4338 35.0882 46.9552 35.0224 46.3212L35.0105 46.2135C34.9925 46.064 34.9746 45.9324 34.9686 45.7888V44.2396C34.9686 42.7322 34.9626 41.2188 34.9746 39.7054C34.9866 37.1632 36.9545 35.1593 39.4489 35.1354H39.4848C40.7051 35.1354 41.8416 35.596 42.685 36.4514C43.5284 37.3008 44.001 38.4612 44.007 39.7114C44.0189 41.1949 44.0189 42.6783 44.0129 44.1797V46.1896L44.007 46.1956Z" fill="white"/>
<path d="M56.7828 34.1961C56.7828 33.7005 56.3811 33.2988 55.8855 33.2988C55.39 33.2988 54.9883 33.7005 54.9883 34.1961V56.0891C54.9883 56.5846 55.39 56.9864 55.8855 56.9864C56.3811 56.9864 56.7828 56.5846 56.7828 56.0891V34.1961Z" fill="white"/>
</svg>
