<svg width="91" height="91" viewBox="0 0 91 91" fill="none" xmlns="http://www.w3.org/2000/svg">
<g clip-path="url(#clip0_1545_7527)">
<path d="M45.2143 89.9032C69.9905 89.9032 90.077 69.8167 90.077 45.0405C90.077 20.2643 69.9905 0.177734 45.2143 0.177734C20.4381 0.177734 0.351562 20.2643 0.351562 45.0405C0.351562 69.8167 20.4381 89.9032 45.2143 89.9032Z" fill="#9688C0"/>
<path d="M68.4454 23.1306C67.9397 23.1248 67.4341 23.1306 66.9055 23.1306H65.8598V22.0676C65.8541 21.7746 65.8598 21.4816 65.8598 21.1885C65.8598 20.545 65.8598 19.89 65.8253 19.2465C65.7104 17.563 64.297 16.2415 62.5446 16.1726C60.8898 16.1151 59.35 17.3389 59.1259 18.9305C59.0282 19.6372 59.0282 20.3727 59.0282 21.0909C59.0282 21.4126 59.0282 21.7344 59.0225 22.0561C59.0167 22.2285 59.0167 22.3951 59.0167 22.5675V23.0846H49.0135V22.7973C49.0135 22.4526 49.0135 22.1136 49.0192 21.7746C49.0192 21.0392 49.0192 20.3209 49.0077 19.6027C48.9618 17.7469 47.646 16.2932 45.8821 16.1496C44.9398 16.0691 44.032 16.3679 43.331 16.9885C42.6415 17.5975 42.2393 18.4421 42.1991 19.3729C42.1646 20.1486 42.1704 20.907 42.1819 21.7171C42.1876 22.0734 42.1876 22.4354 42.1876 22.8031V23.0904H32.1442V21.8608C32.1442 21.1483 32.1442 20.4474 32.1384 19.7464C32.1327 17.6894 30.6675 16.1381 28.7255 16.1381C27.743 16.1381 26.8926 16.5173 26.2893 17.1551C25.6803 17.7986 25.3183 18.7007 25.3126 19.7406V23.1306H22.5546C19.2911 23.1478 17.0043 25.4174 17.0043 28.6579C16.9986 42.166 16.9986 55.6741 17.0043 69.1822C17.0043 72.3768 19.3141 74.6981 22.4972 74.7038C37.8324 74.7095 53.1676 74.7095 68.5028 74.7038C71.6802 74.6981 73.9899 72.3768 73.9957 69.1822C74.0014 55.6741 74.0014 42.166 73.9957 28.6579C73.9899 25.4174 71.7089 23.1478 68.4454 23.1306ZM60.591 19.4016C60.6485 18.4191 61.5046 17.6779 62.4871 17.7009C63.4811 17.7296 64.2568 18.4996 64.2912 19.4878C64.32 20.2577 64.3142 21.0047 64.3085 21.7976C64.3027 22.1308 64.3027 22.4641 64.3027 22.8088V23.0961H60.5738V22.8088C60.5738 22.4583 60.568 22.1079 60.5623 21.7631C60.5565 20.953 60.5451 20.1888 60.591 19.4016ZM43.7332 19.5051C43.7677 18.5111 44.5376 17.7354 45.5259 17.7009C46.5486 17.6492 47.3932 18.4306 47.4449 19.4591C47.4909 20.2233 47.4794 20.976 47.4679 21.7689C47.4679 22.1079 47.4621 22.4526 47.4621 22.7973V23.0846H43.7275V22.7973C43.7275 22.4468 43.7217 22.1079 43.7217 21.7746C43.716 20.9932 43.7102 20.252 43.7332 19.5051ZM26.8639 19.5051C26.8926 18.4996 27.7257 17.6837 28.7427 17.7009C29.7425 17.7124 30.5526 18.4881 30.5871 19.4648C30.6158 20.2348 30.6101 20.9874 30.6043 21.7803C30.6043 22.1193 30.6043 22.4583 30.6043 22.7973V23.0846H26.8639V22.7973C26.8639 22.4526 26.8581 22.1136 26.8581 21.7746C26.8524 20.9932 26.8467 20.252 26.8696 19.5051H26.8639ZM18.5327 32.4041C18.5327 31.3641 18.5327 30.3357 18.5384 29.3129V29.1923C18.5499 28.6292 18.5556 28.0489 18.6878 27.4858C19.0268 26.0264 20.3368 24.8773 21.8766 24.6934C22.072 24.6704 22.2731 24.6704 22.4684 24.6704H24.2956H25.3126V25.6644C25.3068 26.1356 25.3011 26.578 25.3126 27.0204C25.3355 28.0546 25.8009 29.0142 26.5938 29.6519C27.381 30.2897 28.4152 30.5425 29.4207 30.3414C30.0815 30.215 30.3802 29.8933 30.3113 29.3819C30.2826 29.1865 30.1964 28.6694 29.1794 28.8131C28.4899 28.9107 27.9039 28.7728 27.4902 28.4166C27.0765 28.0604 26.8524 27.503 26.8467 26.8078C26.8409 26.4114 26.8467 26.0092 26.8467 25.6012V24.7106H42.1819V24.9979C42.1819 25.2335 42.1819 25.4633 42.1761 25.6989C42.1704 26.2045 42.1646 26.6814 42.1876 27.1641C42.2393 28.1638 42.6817 29.0544 43.4459 29.6634C44.2101 30.2782 45.1754 30.5253 46.1636 30.3586C46.3417 30.3299 46.5486 30.261 46.7669 30.1576C47.1806 29.9565 47.307 29.6634 47.1634 29.2555C47.0657 28.9912 46.8761 28.6924 46.2556 28.7614C45.8016 28.8073 45.3362 28.8533 44.9168 28.7211C44.1986 28.497 43.7562 27.8995 43.7275 27.1123C43.7102 26.6412 43.7102 26.1643 43.716 25.6702V24.7221H59.0167V25.607C59.011 26.0322 59.0052 26.4631 59.0167 26.894C59.0454 27.9857 59.4764 28.9395 60.2233 29.583C60.9587 30.215 61.9298 30.4851 62.9755 30.3586C63.1536 30.3357 63.326 30.2954 63.4868 30.238C63.912 30.0886 64.1304 29.7324 64.0384 29.3474C63.935 28.9395 63.6075 28.7211 63.1536 28.7671C62.1768 28.8705 61.5563 28.7499 61.1484 28.3764C60.7347 28.0087 60.5508 27.3996 60.5508 26.4114V24.7336L61.0449 24.6992C61.2001 24.6877 61.338 24.6762 61.4701 24.6762H62.5675C64.5326 24.6762 66.5033 24.6762 68.4683 24.6762C70.8413 24.6819 72.4444 26.2792 72.4501 28.6407C72.4559 29.8818 72.4501 31.1171 72.4444 32.3581V33.5935C72.4444 33.6739 72.4156 33.7429 72.4041 33.7773L72.3294 33.9612L72.1283 33.9899H18.5327V32.4099V32.4041ZM72.4616 68.8662C72.4616 71.6414 70.9218 73.1697 68.1351 73.1697H22.8419C20.0668 73.1697 18.5327 71.6356 18.5327 68.8547V35.5183H72.4558V68.8662H72.4616Z" fill="white"/>
<path d="M63.6379 41.9262C63.6322 41.2195 63.3736 40.9724 62.6612 40.9667C61.9315 40.9609 61.2018 40.9609 60.4721 40.9609H57.5188C57.0994 40.9609 56.6857 40.9609 56.2662 40.9667C55.548 40.9724 55.2952 41.2195 55.2895 41.9205C55.2837 43.8338 55.2837 45.7471 55.2895 47.6604C55.2952 48.4073 55.548 48.6601 56.2892 48.6659C58.3979 48.6774 60.5123 48.6774 62.621 48.6659C63.3736 48.6601 63.6322 48.4073 63.6379 47.6661C63.6494 45.6379 63.6494 43.7591 63.6379 41.9262ZM62.0579 47.0916H56.8695V42.5295H62.0579V47.0916Z" fill="white"/>
<path d="M33.6503 41.9205C33.6503 41.2195 33.3917 40.9724 32.6735 40.9667C31.9438 40.9609 31.2084 40.9609 30.4787 40.9609H27.5311C27.1117 40.9609 26.698 40.9609 26.2786 40.9667C25.5661 40.9724 25.3133 41.2195 25.3133 41.9262C25.3018 43.8395 25.3018 45.7528 25.3133 47.6604C25.3133 48.3958 25.5604 48.6544 26.2499 48.6601C28.3528 48.6774 30.5304 48.6774 32.7137 48.6601C33.3802 48.6601 33.6445 48.3958 33.6503 47.7236C33.6675 45.8677 33.6675 43.9659 33.6503 41.9205ZM32.0702 47.0973H26.8934V42.5353H32.0702V47.0973Z" fill="white"/>
<path d="M47.6386 40.9652C45.5242 40.9595 43.4155 40.9595 41.3011 40.9652C40.5484 40.9652 40.2956 41.2181 40.2899 41.9593C40.2784 43.8496 40.2784 45.7399 40.2899 47.6302C40.2899 48.4116 40.5369 48.653 41.3413 48.6645C42.0595 48.6702 42.7777 48.6702 43.4902 48.6645H45.4093C46.162 48.6702 46.9146 48.6702 47.6673 48.6645C48.374 48.653 48.6383 48.3887 48.6441 47.6934C48.6498 45.7801 48.6498 43.8668 48.6441 41.9535C48.6383 41.2123 48.3855 40.9652 47.6386 40.9652ZM47.0525 47.0901H41.8642V42.5338H47.0525V47.0901Z" fill="white"/>
<path d="M47.6735 55.9568C46.6335 55.9511 45.5763 55.9453 44.5076 55.9453C43.4389 55.9453 42.3587 55.9453 41.2785 55.9568C40.5488 55.9568 40.296 56.1981 40.2903 56.9048C40.273 58.9101 40.273 60.8579 40.2903 62.708C40.2903 63.3745 40.5546 63.6215 41.2383 63.633C41.968 63.6388 42.7035 63.6388 43.4332 63.633H45.4269C46.1624 63.6388 46.8978 63.6388 47.6332 63.633C48.3974 63.633 48.6387 63.3917 48.6445 62.6505C48.6502 60.743 48.6502 58.8296 48.6445 56.9163C48.6387 56.2096 48.3859 55.9626 47.6735 55.9568ZM47.0472 62.0472H41.8588V57.5311H47.0472V62.0472Z" fill="white"/>
<path d="M63.6347 56.7842C63.6289 56.2211 63.3704 55.9683 62.7958 55.9625C60.555 55.9396 58.3142 55.9396 56.1365 55.9625C55.5505 55.9683 55.2977 56.2326 55.2977 56.8416C55.2862 58.8009 55.2862 60.7544 55.2977 62.708C55.2977 63.3745 55.5505 63.6215 56.2285 63.633C56.9754 63.6388 57.7224 63.6388 58.4693 63.633H60.4745C61.233 63.6388 61.9971 63.6388 62.7556 63.633C63.3646 63.6273 63.6289 63.3745 63.6347 62.7884C63.6576 60.7544 63.6576 58.7377 63.6347 56.7899V56.7842ZM62.0661 62.0472H56.8662V57.5311H62.0661V62.0472Z" fill="white"/>
<path d="M33.6503 56.8991C33.6503 56.2096 33.4032 55.9626 32.7252 55.9568C31.668 55.9511 30.5993 55.9453 29.4962 55.9453C28.4504 55.9453 27.376 55.9453 26.2671 55.9568C25.5546 55.9626 25.3133 56.2039 25.3133 56.9278C25.3018 58.8411 25.3018 60.7487 25.3133 62.662C25.3133 63.3802 25.5546 63.6273 26.2613 63.633C27.0083 63.6388 27.7495 63.6388 28.4907 63.633H30.4155C31.1624 63.6388 31.9093 63.6388 32.6563 63.633C33.4032 63.633 33.6445 63.3975 33.6503 62.6965C33.6675 60.8406 33.6675 58.8871 33.6503 56.8991ZM32.0817 62.053H26.8761V57.5369H32.0817V62.053Z" fill="white"/>
</g>
<defs>
<clipPath id="clip0_1545_7527">
<rect width="90.3237" height="90.3237" fill="white" transform="translate(0 0.136719)"/>
</clipPath>
</defs>
</svg>
