<svg width="91" height="91" viewBox="0 0 91 91" fill="none" xmlns="http://www.w3.org/2000/svg">
<path d="M45.7256 90.041C70.5024 90.041 90.5879 69.9555 90.5879 45.1787C90.5879 20.4019 70.5024 0.316406 45.7256 0.316406C20.9488 0.316406 0.863281 20.4019 0.863281 45.1787C0.863281 69.9555 20.9488 90.041 45.7256 90.041Z" fill="#91C644"/>
<g opacity="0.99">
<path d="M39.511 58.9298C39.1043 58.9298 38.7812 58.6009 38.7812 58.2001V49.9993C38.7812 49.5925 39.1102 49.2695 39.511 49.2695C39.9118 49.2695 40.2408 49.5985 40.2408 49.9993V58.2001C40.2408 58.6068 39.9118 58.9298 39.511 58.9298Z" fill="white"/>
<path d="M17.2013 65.5399C16.4236 65.5399 15.0718 65.3664 13.8635 64.3495C12.4937 63.1951 12.1707 61.6758 12.0989 61.0776C12.0989 61.0597 12.0989 61.0416 12.0989 61.0177C11.9135 56.8545 11.7221 52.6914 11.5366 48.5341C11.5067 47.8761 11.5067 44.4904 14.2463 42.014C16.6749 39.8188 19.57 39.8427 20.4553 39.9085L38.3523 39.6992C38.3523 39.6992 38.3583 39.6992 38.3643 39.6992C39.1778 39.6992 42.0071 39.8846 44.2682 42.1696C46.5113 44.4426 46.6728 47.254 46.6668 48.0675L46.7625 62.0108C46.7625 62.4175 46.4395 62.7465 46.0328 62.7465C45.632 62.7465 45.303 62.4235 45.303 62.0168L45.2073 48.0675V48.0556C45.2073 47.3856 45.0817 45.0648 43.2274 43.1925C41.3671 41.3143 39.0462 41.1587 38.3703 41.1587L20.4433 41.3681C20.4433 41.3681 20.3955 41.3681 20.3775 41.3681C19.6836 41.3143 17.2551 41.2664 15.2333 43.0967C12.9782 45.1365 12.9782 47.9299 13.0021 48.4683C13.1876 52.6195 13.379 56.7708 13.5644 60.9221C13.6242 61.3707 13.8635 62.4235 14.8206 63.231C15.9212 64.1582 17.1953 64.0983 17.5602 64.0564C17.5841 64.0564 17.614 64.0564 17.6379 64.0564C19.8332 64.0505 22.0284 64.0445 24.2237 64.0385C24.6245 64.0385 24.9535 64.3675 24.9535 64.7682C24.9535 65.175 24.6305 65.504 24.2237 65.504C22.0404 65.5099 19.8571 65.5159 17.6738 65.5219C17.5602 65.5339 17.4046 65.5459 17.2072 65.5459L17.2013 65.5399Z" fill="white"/>
<path d="M32.3471 63.0456C32.3471 63.0456 32.3172 63.0456 32.2993 63.0456C31.8985 63.0157 31.5934 62.6687 31.6174 62.2679C31.6473 61.7954 31.426 61.2571 31.0192 60.8264C30.7201 60.5094 30.0562 59.9769 28.9914 59.9769C28.9855 59.9769 28.9735 59.9769 28.9675 59.9769C28.9675 59.9769 28.9555 59.9769 28.9496 59.9769C26.3236 59.9231 23.6977 59.8692 21.0717 59.8154C20.7607 59.8214 19.7677 59.7556 19.0081 58.9541C18.4757 58.3978 18.3262 57.7517 18.2843 57.4167C18.2843 57.3928 18.2843 57.369 18.2843 57.345C18.2125 54.8686 18.1407 52.3983 18.0749 49.9219V49.6466C18.057 49.2398 18.374 48.9049 18.7808 48.8929C19.1815 48.8809 19.5225 49.1981 19.5345 49.6048V49.88C19.6122 52.3384 19.684 54.8028 19.7498 57.2612C19.7737 57.4227 19.8515 57.7039 20.0788 57.9432C20.4377 58.326 20.9282 58.3499 21.0717 58.3439C21.0777 58.3439 21.0897 58.3439 21.0957 58.3439C23.7276 58.3978 26.3476 58.4516 28.9735 58.5054C28.9735 58.5054 28.9855 58.5054 28.9914 58.5054C30.1878 58.5054 31.2884 58.972 32.084 59.8154C32.7718 60.5451 33.1367 61.4723 33.0769 62.3576C33.053 62.7464 32.73 63.0396 32.3471 63.0396V63.0456Z" fill="white"/>
<path d="M26.8182 68.1842C25.0596 68.1842 23.5642 66.7786 23.4805 65.026C23.4805 64.9363 23.4805 64.8345 23.4805 64.7328C23.5463 63.1177 24.8144 61.7481 26.4294 61.5566C26.4593 61.5566 26.4892 61.5566 26.5191 61.5566L32.3453 61.5806C34.6901 61.5926 37.0349 61.6044 39.3737 61.6104L45.8997 61.6403C46.1509 61.6403 46.3842 61.772 46.5158 61.9873C46.6474 62.2026 46.6653 62.4658 46.5517 62.6931C45.7082 64.4338 44.9187 66.0786 44.1351 67.7236C44.0154 67.9748 43.7582 68.1365 43.4771 68.1424L26.8661 68.1902C26.8661 68.1902 26.8302 68.1902 26.8063 68.1902L26.8182 68.1842ZM26.561 63.0221C25.6698 63.1477 24.9759 63.9014 24.94 64.7986C24.94 64.8585 24.94 64.9063 24.94 64.9542C24.9878 65.9531 25.8492 66.7486 26.8541 66.7247C26.8541 66.7247 26.8601 66.7247 26.8661 66.7247L43.0225 66.6768C43.5848 65.5044 44.153 64.326 44.7392 63.1058L39.3677 63.082C37.0229 63.07 34.6781 63.058 32.3393 63.0521L26.561 63.0281V63.0221Z" fill="white"/>
<path d="M43.4915 68.137C43.0907 68.137 42.7617 67.808 42.7617 67.4072C42.7617 67.0005 43.0847 66.6775 43.4915 66.6715H43.5274L67.5676 66.6056C68.0342 66.5937 68.74 66.486 69.4578 66.0434C70.1397 65.6247 70.5405 65.0803 70.7678 64.6855C72.0119 62.1374 73.2561 59.5952 74.5003 57.047C75.8103 54.3672 77.1203 51.6815 78.4302 49.0017C78.502 48.8522 78.4901 48.6787 78.4063 48.577C78.3405 48.4933 78.2269 48.4692 78.179 48.4633C70.7678 48.4932 63.3625 48.5172 55.9512 48.5471C55.9453 48.5471 55.9393 48.5471 55.9333 48.5471C55.4249 48.5351 54.6592 48.6188 53.8876 49.0854C52.9425 49.6536 52.5058 50.5509 52.3144 50.9338L52.0093 51.5499C50.9805 53.6435 49.0604 57.5434 46.572 62.7056C46.5122 62.8252 46.4225 62.9269 46.3148 62.9987C46.2012 63.0705 46.0636 63.1183 45.92 63.1183C45.5133 63.1183 45.1903 62.7893 45.1903 62.3885C45.1903 62.2629 45.2262 62.1374 45.28 62.0357C47.7684 56.8915 49.6765 52.9974 50.7053 50.9098L51.0044 50.2997C51.2317 49.8391 51.8239 48.6307 53.1399 47.8411C54.2106 47.2011 55.2634 47.0815 55.9632 47.0934C63.3864 47.0635 70.8036 47.0397 78.2209 47.0098C78.2448 47.0098 78.2628 47.0098 78.2867 47.0098C78.52 47.0277 79.1122 47.1294 79.5428 47.6558C79.9855 48.1942 80.0752 48.9717 79.7642 49.6356C79.7642 49.6356 79.7642 49.6416 79.7642 49.6476C78.4542 52.3334 77.1382 55.0191 75.8282 57.7049C74.5781 60.259 73.3339 62.8132 72.0837 65.3614C72.0778 65.3734 72.0718 65.3854 72.0658 65.3973C71.7607 65.9417 71.1984 66.7073 70.2414 67.2994C69.2424 67.9156 68.2615 68.0651 67.6095 68.0831C67.6095 68.0831 67.5975 68.0831 67.5915 68.0831L43.5094 68.1489L43.4915 68.137Z" fill="white"/>
<path d="M29.1403 36.8528C25.0967 36.8528 21.8008 33.5629 21.8008 29.5133C21.8008 25.4637 25.0907 22.1738 29.1403 22.1738C33.1898 22.1738 36.4797 25.4637 36.4797 29.5133C36.4797 33.5629 33.1898 36.8528 29.1403 36.8528ZM29.1403 23.6393C25.8982 23.6393 23.2663 26.2772 23.2663 29.5133C23.2663 32.7494 25.9042 35.3873 29.1403 35.3873C32.3763 35.3873 35.0142 32.7494 35.0142 29.5133C35.0142 26.2772 32.3763 23.6393 29.1403 23.6393Z" fill="white"/>
<path d="M62.1101 59.7265C61.7392 59.7265 61.3684 59.6666 61.0214 59.547C60.202 59.2659 59.5858 58.6976 59.2808 57.938C58.9757 57.1843 59.0236 56.3409 59.4124 55.5753C59.7892 54.8395 60.4353 54.2593 61.2428 53.9303C62.9416 53.2424 64.8258 53.9243 65.4419 55.4437C66.058 56.969 65.1787 58.7635 63.4799 59.4513C63.0373 59.6308 62.5707 59.7205 62.1101 59.7205V59.7265ZM62.6185 55.1266C62.3494 55.1266 62.0682 55.1805 61.7931 55.2881C61.3145 55.4796 60.9317 55.8204 60.7164 56.2391C60.519 56.622 60.4891 57.0348 60.6386 57.3937C60.7882 57.7526 61.0873 58.0216 61.5 58.1652C61.9486 58.3207 62.457 58.2969 62.9356 58.0995C63.8867 57.7167 64.4011 56.7716 64.09 55.9939C63.8687 55.4436 63.2825 55.1206 62.6185 55.1206V55.1266Z" fill="white"/>
</g>
</svg>
