<svg width="91" height="90" viewBox="0 0 91 90" fill="none" xmlns="http://www.w3.org/2000/svg">
<path d="M45.3627 89.8622C70.1398 89.8622 90.2255 69.7765 90.2255 44.9995C90.2255 20.2225 70.1398 0.136719 45.3627 0.136719C20.5857 0.136719 0.5 20.2225 0.5 44.9995C0.5 69.7765 20.5857 89.8622 45.3627 89.8622Z" fill="#91C644"/>
<g clip-path="url(#clip0_1545_7565)">
<path d="M56.9724 45.6493C56.0692 49.6451 54.1431 52.4684 51.0864 54.2749C49.1005 55.4533 46.8155 56.0515 43.9024 56.1591C43.4059 56.189 43.0829 55.884 43.065 55.4174C43.041 54.9449 43.3401 54.6577 43.9383 54.568C44.2613 54.5202 44.5843 54.4783 44.9073 54.4364C46.0558 54.2809 47.2462 54.1254 48.3707 53.7545C51.9299 52.5881 54.2866 49.8544 55.3633 45.6373C56.135 42.5926 56.2546 39.3506 55.7402 35.1275C55.6385 34.302 55.5009 33.4945 55.3574 32.6391C55.2916 32.2443 55.2258 31.8435 55.16 31.4308L55.0224 30.5515L54.2807 31.048C51.5171 32.9083 48.3468 33.4167 45.2782 33.9132C44.9014 33.973 44.5185 34.0388 44.1417 34.0986C39.0273 34.96 35.8331 38.7943 35.3785 44.6204C35.2409 46.4269 35.6237 48.2693 36.509 50.1057C36.5988 50.2851 36.7004 50.4646 36.8021 50.638C36.8859 50.7876 36.9995 50.8594 37.0713 50.9012L37.5857 51.2721L38.2976 50.2672C38.5727 49.8724 38.8539 49.4776 39.135 49.0888C41.6114 45.6971 44.6322 42.5089 48.1135 39.6078C48.2272 39.5121 48.3468 39.4164 48.4664 39.3326C48.8792 39.0515 49.2979 39.0814 49.579 39.4104C49.8781 39.7573 49.8363 40.2 49.4654 40.5349C49.0766 40.8879 48.6818 41.2288 48.287 41.5698C47.7187 42.0663 47.1265 42.5747 46.5702 43.1071C42.072 47.4139 39.0094 51.4635 36.9218 55.8541C35.863 58.0852 35.211 60.1848 34.9299 62.2665C34.9179 62.3323 34.9059 62.3921 34.882 62.5057C34.7803 62.9484 34.4872 63.391 33.9788 63.3073C33.7335 63.2654 33.5361 63.1458 33.4225 62.9723C33.3088 62.8048 33.2789 62.5954 33.3387 62.3681C33.8173 60.3523 34.3736 58.3305 34.9777 56.3625C35.199 55.6327 35.5878 54.909 35.9647 54.2151L36.0783 54.0057C36.3954 53.4076 36.3774 52.9111 36.0125 52.3368C32.8303 47.4079 33.0636 41.3963 36.6227 36.6528C38.2138 34.5293 40.5168 33.2313 43.8605 32.5613C44.4168 32.4537 44.9731 32.346 45.5294 32.2383C46.8693 31.9811 48.2571 31.7119 49.6149 31.4009C51.553 30.9523 53.2757 30.0311 54.7353 28.6673C54.9745 28.4399 55.2437 28.3203 55.477 28.3203C55.5368 28.3203 55.5966 28.3263 55.6505 28.3442C55.8838 28.41 56.0632 28.6254 56.1469 28.9544C57.8278 35.4086 58.091 40.7084 56.9724 45.6493Z" fill="white"/>
<path d="M73.7964 47.2345C73.0367 59.7302 63.8608 70.276 51.4846 72.8959C50.3541 73.1352 49.1578 73.2489 48.0033 73.3625C47.4829 73.4104 46.9565 73.4642 46.4361 73.524C46.2566 73.548 46.0712 73.5539 45.8499 73.5599C45.7123 73.5659 45.5687 73.5719 45.3953 73.5838L44.2946 73.6437L47.9554 78.2017C48.1349 78.423 48.3143 78.7401 48.1528 78.9793C47.9674 79.2605 47.6444 79.4878 47.4829 79.5057C47.2975 79.5117 46.9146 79.3681 46.7531 79.1827C45.0663 77.1729 43.3854 75.0613 41.902 73.195C41.5012 72.6866 41.5371 72.3337 42.0395 71.9269C43.9956 70.3298 46.0174 68.6968 48.0452 67.0877C48.2426 66.9322 48.4459 66.8544 48.6374 66.8544C48.8587 66.8544 49.0621 66.9561 49.2176 67.1535C49.5167 67.5304 49.4389 67.961 49.0142 68.3199C48.3084 68.9062 47.5965 69.4804 46.8847 70.0487L45.7003 70.9997L45.9635 72.0406L46.454 71.9867C46.8369 71.9449 47.2137 71.909 47.5965 71.8791C48.428 71.8073 49.2953 71.7355 50.1388 71.5501C61.3066 69.1753 68.4727 62.5356 71.4396 51.8284C74.891 39.3685 68.4128 25.9516 56.3777 20.6159L56.1623 20.5262C56.0307 20.4664 55.8932 20.4125 55.7675 20.3407C55.3309 20.1075 55.1694 19.7306 55.3428 19.3238C55.4385 19.0965 55.606 18.9291 55.8094 18.8573C55.9769 18.7975 56.1504 18.8094 56.3238 18.8991C56.8143 19.1623 57.3168 19.4136 57.8193 19.6708C59.3207 20.4305 60.8699 21.22 62.1919 22.219C70.5184 28.5416 74.4245 36.9579 73.7964 47.2345Z" fill="white"/>
<path d="M48.8763 18.4254C46.9502 19.9866 45.0241 21.5418 43.0861 23.0851C42.8588 23.2706 42.6673 23.3782 42.5178 23.4081C42.1469 23.4859 41.8837 23.3603 41.6863 23.0133C41.5009 22.6903 41.5787 22.3075 41.8837 22.0503C42.6195 21.4342 43.3612 20.836 44.1089 20.2318L45.2933 19.2808L45.0839 18.2399L44.5635 18.2998C44.1807 18.3416 43.7979 18.3775 43.4091 18.4074C42.5597 18.4852 41.6804 18.563 40.825 18.7424C29.5854 21.147 22.4133 27.8346 19.5122 38.6196C16.1325 51.1752 22.4133 64.1973 34.4305 69.5868C35.6927 70.1491 35.4773 70.6456 35.3697 70.8849C35.2859 71.0823 35.1663 71.2079 35.0167 71.2617C34.7476 71.3634 34.3169 71.2857 33.8084 71.0404C24.0463 66.3507 18.4773 58.6643 17.2571 48.1783C15.5463 33.5471 26.0322 19.6337 40.6336 17.1573C41.5607 17.0017 42.5298 16.924 43.4689 16.8462C43.9056 16.8163 44.3482 16.7804 44.7849 16.7385C44.9284 16.7206 45.072 16.7146 45.2455 16.7026L46.5913 16.6069L45.7539 15.5003C45.6223 15.3209 45.5086 15.1654 45.389 15.0158L44.4379 13.8374C44.0072 13.305 43.5766 12.7727 43.1459 12.2343C42.8946 11.9173 42.775 11.6062 42.8049 11.355C42.8229 11.1815 42.9186 11.026 43.0861 10.8944C43.1698 10.8286 43.3253 10.709 43.5407 10.709C43.756 10.709 44.0252 10.8226 44.3482 11.2174C44.8267 11.7917 45.2933 12.3779 45.7599 12.9641L46.9742 14.4655C47.6501 15.3089 48.332 16.1463 49.002 16.9957C49.4805 17.5999 49.4506 17.9648 48.8763 18.4254Z" fill="white"/>
</g>
<defs>
<clipPath id="clip0_1545_7565">
<rect width="69.609" height="69.609" fill="white" transform="translate(10.6641 10.3047)"/>
</clipPath>
</defs>
</svg>
