<svg width="97" height="97" viewBox="0 0 97 97" fill="none" xmlns="http://www.w3.org/2000/svg">
<path d="M48.7026 96.9853C75.3004 96.9853 96.8623 75.4235 96.8623 48.8257C96.8623 22.2278 75.3004 0.666016 48.7026 0.666016C22.1048 0.666016 0.542969 22.2278 0.542969 48.8257C0.542969 75.4235 22.1048 96.9853 48.7026 96.9853Z" fill="#F8A91E"/>
<path d="M4.32812 64.1726C5.01074 63.943 5.68643 63.6979 6.35692 63.4415C6.37511 63.438 6.3933 63.4354 6.41149 63.4319C6.42015 63.4302 6.42448 63.4233 6.42535 63.4155C11.1881 61.417 14.6938 59.4237 16.5295 58.1997C18.2542 57.0502 19.8923 55.7568 19.8923 55.7568C20.6044 55.1946 21.1952 54.6983 21.6335 54.3197L33.4718 54.2383C33.568 56.1675 33.4025 58.0949 32.9789 59.9669C32.3734 62.6462 31.2603 65.1619 29.6715 67.4436" stroke="white" stroke-width="1.5" stroke-linecap="round" stroke-linejoin="round"/>
<path d="M36.5912 62.8784C35.5508 59.9981 34.5095 57.1186 33.4691 54.2383C33.5454 55.7612 33.4839 57.8038 32.9381 60.1315C32.1559 63.4683 30.7179 65.9389 29.668 67.4445" stroke="white" stroke-width="1.5" stroke-linecap="round" stroke-linejoin="round"/>
<path d="M76.4237 53.6768C76.9114 51.9071 77.1981 49.7171 77.1981 47.2162C77.1981 32.2559 65.0262 20.084 50.0658 20.084C35.1055 20.084 22.9336 32.2559 22.9336 47.2162C22.9336 49.6626 23.2593 52.0872 23.9021 54.4236" stroke="white" stroke-width="1.5" stroke-miterlimit="10"/>
<path d="M31.4453 67.5631C33.5919 65.925 35.5921 64.0772 37.3905 62.0709C39.6228 59.5804 41.565 56.824 43.1659 53.877H56.8771C57.7624 55.1096 58.711 56.319 59.6968 57.4719C61.2959 59.3431 63.0302 61.1103 64.8822 62.7596C64.884 62.7622 64.884 62.7648 64.8866 62.7666C64.8883 62.7674 64.89 62.7674 64.8909 62.7683C64.9879 62.8549 65.0849 62.9407 65.1828 63.0264C65.1846 63.0316 65.1889 63.0351 65.1941 63.0368C65.1941 63.0368 65.195 63.0368 65.1958 63.0368C66.6321 64.2964 68.1368 65.4875 69.7047 66.5998" stroke="white" stroke-width="1.5" stroke-linecap="round" stroke-linejoin="round"/>
<path d="M64.7383 62.6334C65.8878 60.933 67.0815 58.8245 68.0691 56.2984C68.4346 55.362 68.7378 54.4576 68.989 53.5957C69.8016 55.174 70.7917 56.884 72.0002 58.6599C73.7552 61.2405 75.5674 63.3689 77.2246 65.0858" stroke="white" stroke-width="1.5" stroke-linecap="round" stroke-linejoin="round"/>
<path d="M77.223 65.0852C75.5632 63.3458 73.7588 61.2087 72.0081 58.6376C70.8066 56.873 69.8121 55.1726 68.9883 53.5951C70.5112 53.5769 72.0332 53.5587 73.5561 53.5405C73.5544 53.5509 73.5596 53.5604 73.57 53.563C73.5803 53.5656 73.5907 53.5596 73.5933 53.5492C73.5933 53.5466 73.5951 53.5431 73.5951 53.5405L78.823 53.5137L81.7328 55.895L81.8662 56.0042C81.8662 56.0042 81.874 56.0068 81.8783 56.0068C83.3778 57.1736 84.9709 58.2417 86.6185 59.1825C88.2202 60.0973 89.8947 60.9038 91.6134 61.5924C91.616 61.5942 91.6177 61.5959 91.6203 61.5968C91.622 61.5968 91.6238 61.5968 91.6246 61.5968C92.1106 61.7813 92.5974 61.9658 93.0834 62.1503" stroke="white" stroke-width="1.5" stroke-linecap="round" stroke-linejoin="round"/>
</svg>
