<svg width="97" height="97" viewBox="0 0 97 97" fill="none" xmlns="http://www.w3.org/2000/svg">
<path d="M48.351 96.8857C74.9489 96.8857 96.5107 75.3239 96.5107 48.726C96.5107 22.1282 74.9489 0.566406 48.351 0.566406C21.7532 0.566406 0.191406 22.1282 0.191406 48.726C0.191406 75.3239 21.7532 96.8857 48.351 96.8857Z" fill="#FFCA2D"/>
<path d="M64.6647 48.2631C63.1429 42.5674 60.2725 37.1863 55.8804 31.8246C52.7982 28.0617 49.6453 25.3455 46.242 23.509C43.7313 22.1541 41.715 21.6533 39.7116 21.8908C37.843 22.1092 36.5523 22.9953 35.7625 24.5814L33.8939 28.3828C30.7988 34.6628 27.7038 40.9364 24.583 47.2035C24.3262 47.7237 23.8638 48.2438 23.3245 48.6226C22.2971 49.3547 21.244 50.0546 20.1973 50.7609C19.3047 51.3645 18.4122 51.9681 17.526 52.5846C15.0217 54.3247 13.7182 56.7135 13.6476 59.6673C13.5834 62.1844 14.5337 64.5474 16.3253 66.339C18.1296 68.1369 20.5248 69.0809 23.0548 69.0102C24.5959 68.9653 26.0664 68.4901 27.5625 67.5654L28.0056 67.2829L28.4872 67.9636C28.6028 68.1305 28.7248 68.2975 28.8339 68.458L31.8262 72.863C34.1122 76.2406 36.4046 79.6182 38.697 82.9894C40.2381 85.2432 42.7296 86.1743 45.0734 85.3717C46.7108 84.8002 47.9565 83.5865 48.4766 82.0326C49.0032 80.4594 48.7463 78.7128 47.7575 77.2295C46.1329 74.7894 44.4569 72.3236 42.8387 69.9413C42.081 68.8304 41.3362 67.7324 40.5849 66.6215L38.0356 62.8458L39.1272 62.6467C39.2878 62.6146 39.4162 62.5889 39.5382 62.5825L44.1872 62.2101C49.5169 61.7799 54.8594 61.3496 60.1955 60.9387C61.5118 60.8424 62.5906 60.3543 63.4832 59.4489C64.3372 58.5885 64.8894 57.4712 65.1848 56.0521C65.6536 53.7789 65.4995 51.3067 64.684 48.2695L64.6647 48.2631ZM26.5993 66.0757C25.3407 66.8976 23.9794 67.2957 22.6502 67.2957C20.4092 67.2957 18.2452 66.1656 16.7876 64.053C14.4438 60.6433 15.1373 56.463 18.4507 54.1193C19.7414 53.201 21.077 52.302 22.3741 51.4287C22.9649 51.0306 23.5685 50.6261 24.1657 50.2151L24.6216 49.9005L32.7316 61.8505L32.1345 62.3C32.006 62.3963 31.884 62.4862 31.7556 62.5761C31.2612 62.9164 30.7603 63.2632 30.2659 63.5971C29.0715 64.419 27.8386 65.2666 26.5993 66.0757ZM39.2364 67.8094C41.5545 71.2256 43.8726 74.6417 46.1842 78.0642C46.9419 79.1815 47.1217 80.4851 46.6787 81.6216C46.2613 82.7068 45.343 83.4902 44.1551 83.7856C43.8662 83.8498 43.59 83.8883 43.3075 83.8883C42.1131 83.8883 41.0087 83.2655 40.2317 82.1225C38.3374 79.3421 36.4431 76.5488 34.5553 73.762L29.4761 66.2876L31.1584 65.1382C32.1152 64.4768 33.0527 63.8347 34.0095 63.2182C34.8892 62.6532 35.8845 62.8715 36.5009 63.7705L39.2364 67.8094ZM41.9847 60.6176C39.9235 60.7717 37.7916 60.9451 35.6983 61.1313C35.5955 61.1442 35.4928 61.1441 35.3901 61.1441C34.6709 61.1441 34.1829 60.8616 33.7526 60.2259C31.6336 57.0474 29.4439 53.8303 27.3249 50.7224L26.4131 49.3804C26.1434 48.9951 25.9187 48.5071 26.2526 47.8328C28.1404 43.9993 30.0283 40.1658 31.9097 36.3259L33.6049 32.8712C33.637 32.7942 33.682 32.7235 33.7334 32.6465L34.4782 31.4329L34.8057 32.7043C37.5733 43.6012 43.3781 52.1351 52.5285 58.8004L53.7357 59.6801L41.9847 60.6176ZM63.3355 55.0504C63.0979 56.3025 62.6163 57.2593 61.8586 57.9913C60.9789 58.8261 60.0414 59.237 59.014 59.237C58.7057 59.237 58.4039 59.2049 58.0829 59.1343C55.7648 58.6142 53.5559 57.4776 51.347 55.654C44.2643 49.8106 39.4419 42.5224 37.0339 34.0014C36.7514 33.0061 36.6037 31.9787 36.4753 31.0733C36.4239 30.688 36.3661 30.322 36.3083 29.9881L36.2955 29.9174V29.8468C36.334 29.5193 36.3468 29.2368 36.3661 28.9735C36.4046 28.447 36.4303 27.9911 36.5074 27.5352C36.7514 26.0839 37.3999 24.9602 38.3824 24.3052C39.3713 23.6439 40.6555 23.4769 42.1003 23.8172C44.1423 24.2924 46.0622 25.2492 47.9694 26.7453C55.296 32.486 60.3368 39.8448 62.9502 48.6355C63.6052 50.8251 63.7336 52.9891 63.3419 55.0568L63.3355 55.0504Z" fill="white"/>
<path d="M79.2561 23.908C79.2047 24.1905 78.9671 24.4795 78.5947 24.7235C75.4482 26.7975 72.289 28.8716 69.1297 30.9264C68.9435 31.042 68.7123 31.1383 68.5454 31.2025C68.5197 31.2154 68.5004 31.2218 68.4811 31.2282C67.7555 31.209 67.5822 30.9136 67.473 30.6246C67.3317 30.2394 67.4858 29.8605 67.9032 29.5844C68.8728 28.9294 69.8489 28.2937 70.8249 27.6644L73.9842 25.5839C75.1914 24.7941 76.3986 23.9979 77.6058 23.2016C77.8498 23.0475 78.1388 22.9062 78.4277 22.9062C78.6781 22.9062 78.9093 23.0026 79.1019 23.2851C79.2432 23.497 79.2946 23.7025 79.2561 23.908Z" fill="white"/>
<path d="M83.305 42.0886C83.2665 42.3455 83.1509 42.5509 82.9518 42.6922C82.7142 42.8592 82.3996 42.9234 82.04 42.8527C79.3238 42.3647 76.6076 41.8767 73.8914 41.3887L71.2137 40.9071C70.9761 40.8621 70.7385 40.8236 70.5074 40.7594C70.0258 40.6246 69.7368 40.2329 69.8074 39.7962C69.8845 39.3146 70.2634 39.0449 70.8477 39.0449H70.8926L78.6174 40.4255C79.8503 40.6567 81.0896 40.875 82.329 41.0933C82.8298 41.1768 83.3756 41.4914 83.2986 42.0886H83.305Z" fill="white"/>
<path d="M63.0597 12.9791L62.1222 22.1615C62.0644 22.6945 62.013 23.2339 61.9488 23.7733C61.8718 24.3576 61.5058 24.6722 60.9471 24.6209C60.7095 24.6016 60.5169 24.4989 60.3885 24.3255C60.2472 24.1521 60.183 23.9017 60.2087 23.6256C60.5939 19.7343 60.9535 16.1961 61.3131 12.7993C61.3452 12.5489 61.448 12.3434 61.6278 12.2085C61.7755 12.0994 61.9745 12.0352 62.18 12.0352C62.2185 12.0352 62.2571 12.0352 62.302 12.0352C62.7708 12.0865 63.079 12.4654 63.0726 12.9727L63.0597 12.9791Z" fill="white"/>
<path d="M51.9241 48.9188C51.7058 49.0858 51.4618 49.272 51.2178 49.349C50.8325 49.4775 50.4087 49.2977 50.2096 48.9124C49.9913 48.5079 50.1004 48.0776 50.4857 47.7887C51.8663 46.742 52.6304 45.4899 52.8166 43.9616C53.0928 41.7912 52.3029 39.9804 50.5435 38.7411C49.5803 38.054 48.5272 37.7137 47.4485 37.7137C46.6073 37.7137 45.7404 37.9192 44.8671 38.343C44.7387 38.4008 44.6103 38.4778 44.4947 38.5484C44.4048 38.5998 44.3213 38.6576 44.225 38.6961C43.7562 38.9273 43.2746 38.7989 43.0242 38.3815C42.7738 37.9705 42.8958 37.4697 43.3067 37.1871C44.6359 36.2817 45.9651 35.9478 46.7742 35.9414C50.4344 35.9414 53.2469 37.7715 54.3064 40.8408C55.3081 43.7561 54.3513 46.9924 51.9241 48.906V48.9188Z" fill="white"/>
</svg>
