<svg width="90" height="90" viewBox="0 0 90 90" fill="none" xmlns="http://www.w3.org/2000/svg">
<path d="M44.8627 89.8622C69.6398 89.8622 89.7255 69.7765 89.7255 44.9995C89.7255 20.2225 69.6398 0.136719 44.8627 0.136719C20.0857 0.136719 0 20.2225 0 44.9995C0 69.7765 20.0857 89.8622 44.8627 89.8622Z" fill="#F8A91E"/>
<g clip-path="url(#clip0_1545_7516)">
<path d="M79.3093 53.0041C79.3272 50.9464 79.3332 48.8827 79.3272 46.8191C79.3272 46.4482 79.2614 46.191 79.1179 46.0474C78.9683 45.9039 78.7111 45.8321 78.3283 45.8381C77.7959 45.844 77.2695 45.8799 76.7551 45.9098C76.5457 45.9278 76.3304 45.9457 76.127 45.9517L75.8638 45.9697L75.816 45.7065C73.7343 33.9285 67.4535 25.8113 56.6327 20.8884L55.8072 20.5175L56.6925 20.3321C56.8839 20.2842 57.0633 20.3141 57.2069 20.3321C57.2727 20.3381 57.3445 20.35 57.4163 20.356H57.7991C59.9645 20.368 62.2016 20.3859 64.4029 20.368C65.007 20.368 65.36 20.5654 65.6471 21.0738C66.1436 21.9472 66.987 22.4915 67.968 22.5573C68.9609 22.6291 69.8941 22.2103 70.5281 21.4028C71.3117 20.4039 71.3716 19.3092 70.7196 17.9514L69.8702 17.102C69.7924 17.0781 69.7206 17.0481 69.6488 17.0242C67.9979 16.2227 66.4426 16.7132 65.5035 18.3402C65.3241 18.6453 64.8575 18.8367 64.5165 18.8307C60.4789 18.8486 56.4412 18.8427 52.4036 18.8367H51.0158C50.8723 18.8367 50.7347 18.8187 50.5971 18.8127L50.2203 18.7828L50.1724 18.5735C49.4068 15.5408 47.032 14.4521 45.2315 14.4282C42.5996 14.3982 40.6316 15.9535 39.9617 18.5795L39.9078 18.8008H39.4951C39.3396 18.8127 39.184 18.8187 39.0285 18.8187H35.7984C32.5324 18.8068 29.2604 18.7948 25.9884 18.8008C25.4919 18.8008 24.7502 18.8008 24.4272 17.9035C24.3614 17.7181 24.1341 17.5207 23.9307 17.3472C22.8779 16.438 21.7354 16.3423 20.3178 17.0182L19.3786 17.9633C19.3547 18.0531 19.3368 18.1428 19.2949 18.2206C18.607 19.8356 19.1633 21.4686 20.6408 22.1984C22.1182 22.9282 23.7871 22.3659 24.6007 20.8645C24.8758 20.356 25.2467 20.3141 25.5996 20.3141C27.1668 20.3261 28.728 20.3261 30.2833 20.3321L33.0528 20.3441C33.1485 20.3441 33.2322 20.356 33.3339 20.374L34.5363 20.5235L33.5433 20.9602C22.6446 25.7575 16.316 33.8089 14.1626 45.5689L14.1207 45.8201L13.8575 45.8081C13.6362 45.8022 13.4089 45.7902 13.1816 45.7842C12.6492 45.7603 12.0929 45.7244 11.5426 45.7304C10.8966 45.7304 10.6394 45.9756 10.6394 46.6097C10.6154 48.6076 10.6095 50.6713 10.6154 52.9264C10.6154 53.6023 10.8607 53.8416 11.5546 53.8476C13.6362 53.8595 15.7238 53.8715 17.8054 53.8595C18.4933 53.8535 18.7326 53.6143 18.7446 52.9324C18.7685 50.8447 18.7864 48.7631 18.7864 46.6755C18.7864 46.3345 18.7147 46.0953 18.5651 45.9457C18.4156 45.7962 18.1703 45.7244 17.8054 45.7244C17.4406 45.7244 17.0757 45.7543 16.6928 45.7842C16.5134 45.7962 16.3339 45.8141 16.1485 45.8261L15.7776 45.844L15.8315 45.4792C17.8772 31.3504 29.6911 22.2522 39.7702 20.8704L40.0095 20.8346L40.0933 21.0559C40.9367 23.2811 42.4441 24.5013 44.5735 24.6748C47.1217 24.8782 48.9701 23.6579 50.0647 21.0439L50.1605 20.8226L50.3997 20.8645C62.6802 23.0059 72.6397 33.3602 74.0753 45.4732L74.1172 45.8141L73.3216 45.8022C72.9447 45.8022 72.5619 45.8022 72.1851 45.7962C71.4374 45.7962 71.1801 46.0474 71.1742 46.7832C71.1742 48.8469 71.1742 50.9046 71.1801 52.9742C71.1801 53.6801 71.4374 53.9373 72.1492 53.9373C74.2129 53.9492 76.2766 53.9552 78.3343 53.9492C79.064 53.9492 79.2973 53.716 79.3033 52.9922L79.3093 53.0041ZM68.2192 18.1847C68.602 18.1847 68.949 18.3402 69.2181 18.6273C69.4813 18.8965 69.6189 19.2674 69.607 19.6502C69.589 20.039 69.4275 20.3919 69.1464 20.6551C68.8592 20.9183 68.4884 21.0439 68.0996 21.032C67.7466 21.014 67.4177 20.8704 67.1664 20.6192C67.1425 20.5953 67.1305 20.5833 67.1186 20.5594C66.6101 19.9971 66.64 19.1298 67.1904 18.5914C67.4715 18.3222 67.8364 18.1787 68.2252 18.1906L68.2192 18.1847ZM21.9866 20.9482C21.6457 20.9482 21.3107 20.8106 21.0415 20.5415L21.0296 20.5295C20.7664 20.2543 20.6228 19.8954 20.6288 19.5186C20.6288 19.1358 20.8023 18.7709 21.0894 18.5017C21.3646 18.2445 21.7055 18.1069 22.0405 18.1248C22.3874 18.1368 22.7224 18.3103 22.9856 18.5854C23.512 19.1597 23.4881 20.027 22.9318 20.5594C22.6566 20.8226 22.3156 20.9542 21.9807 20.9482H21.9866ZM17.1475 47.3514L17.1355 52.1846H12.2784L12.2963 47.3514H17.1534H17.1475ZM45.0042 23.2093C44.0591 23.1973 43.1678 22.8145 42.4919 22.1326L42.45 22.0907C41.0802 20.6731 41.0982 18.3821 42.4979 16.9943C43.1798 16.3124 44.101 15.9475 45.0999 15.9535C46.0869 15.9595 46.9722 16.3244 47.6661 17.0182C48.342 17.7121 48.7129 18.6273 48.6949 19.5963C48.677 20.5654 48.2822 21.4806 47.5883 22.1625C46.8885 22.8504 45.9733 23.2272 45.0102 23.2093H45.0042ZM72.8371 52.3043L72.873 47.477H77.6882L77.6763 52.2983L72.8311 52.3103L72.8371 52.3043Z" fill="white"/>
<path d="M57.2819 75.3557C57.2819 75.0446 57.2939 74.7874 57.2281 74.5661C56.6 72.5742 55.9061 70.4686 55.1165 68.1358C54.9072 67.5376 54.9311 67.0352 55.1943 66.4669C56.1454 64.3793 57.0845 62.2797 58.0236 60.1861C58.6158 58.8642 59.208 57.5422 59.8062 56.2202C60.0215 55.7477 60.0395 55.3948 59.872 55C56.0497 46.0454 52.2274 37.0848 48.417 28.1182C48.3512 27.9507 48.2615 27.8191 48.1658 27.7174C47.9864 27.538 47.7411 27.4542 47.4181 27.4602C45.7791 27.4782 44.3076 27.4901 42.8122 27.4483C42.1781 27.4303 41.8431 27.6516 41.574 28.2737C37.6739 37.33 33.8217 46.2607 30.1071 54.8265C29.8917 55.323 29.8977 55.7297 30.119 56.2322C31.9733 60.3656 33.379 63.5478 34.6771 66.5566C34.8565 66.9634 34.8805 67.5197 34.7489 67.9504C34.2643 69.4817 33.7379 71.0249 33.2355 72.5264L32.6911 74.1414C32.4459 74.8532 32.404 75.2899 32.5476 75.4933C32.6971 75.6967 33.1039 75.7924 33.8396 75.7924L46.2935 75.8163C49.5954 75.8163 52.8973 75.8282 56.1992 75.8163C56.4325 75.8163 56.6718 75.7684 56.9769 75.6967C57.0726 75.6787 57.1683 75.6608 57.2759 75.6368C57.2759 75.5411 57.2759 75.4574 57.2879 75.3677L57.2819 75.3557ZM36.2682 66.1618C36.1605 66.0542 36.0648 65.9166 35.9871 65.7311C35.3231 64.1998 34.6472 62.6685 33.9772 61.1432C33.2415 59.4683 32.5057 57.7994 31.7879 56.1245C31.6264 55.7596 31.6324 55.2213 31.7879 54.8504C33.6303 50.5496 35.4846 46.2547 37.3389 41.9599C39.0975 37.8744 40.8622 33.7889 42.6088 29.6974C42.878 29.0633 43.3146 28.842 43.9367 29.0274L44.1461 29.0932L44.0923 48.9226L43.865 48.9824C39.6957 49.9933 38.7087 53.6122 39.0557 55.7955C39.5282 58.7026 41.9867 60.8261 44.9177 60.8501C47.8009 60.874 50.2893 58.8283 50.8217 55.987C51.4258 52.8047 49.7151 50.3103 46.0184 48.9585L45.821 48.8867L45.8808 29.1112L46.0902 29.0454C46.9515 28.7762 47.3044 29.3325 47.4899 29.7751C50.7619 37.5214 54.2312 45.6745 58.0954 54.7009C58.3467 55.2871 58.3407 55.7836 58.0655 56.3758C56.7495 59.247 55.3857 62.2976 53.8843 65.7072C53.6391 66.2635 53.2981 66.4848 52.67 66.4789C48.0581 66.4549 43.1292 66.4489 37.1655 66.4549C36.8125 66.4549 36.5075 66.3951 36.2682 66.1558V66.1618ZM41.8551 51.722C43.6137 49.9873 46.3533 50.0112 48.1 51.7639L48.1239 51.7878C49.8227 53.5105 49.7988 56.304 48.088 58.0207C47.2506 58.8522 46.132 59.3128 44.9357 59.3068C43.7453 59.3068 42.6268 58.8462 41.8013 58.0207H41.7953C40.9698 57.1713 40.5152 56.0647 40.5272 54.8803C40.5272 53.69 41.0057 52.5714 41.8551 51.734V51.722ZM55.1046 74.1354L54.955 74.0816L34.3361 74.0517L36.334 68.0819L53.4955 68.1178L55.2601 73.4954H55.29L55.3139 73.6509C55.3618 73.8543 55.296 73.956 55.2422 74.0098L55.1106 74.1414L55.1046 74.1354Z" fill="white"/>
</g>
<defs>
<clipPath id="clip0_1545_7516">
<rect width="69.609" height="69.609" fill="white" transform="translate(10.168 10.3066)"/>
</clipPath>
</defs>
</svg>
